<svg width="166" height="20" viewBox="0 0 166 20" fill="none" xmlns="http://www.w3.org/2000/svg">
<path d="M17.1102 14.2C17.6902 14.2 18.0702 14.12 18.2502 13.96C18.4502 13.78 18.5702 13.56 18.6102 13.3L20.0502 5.05H17.7102L18.5802 0.25H26.6202L24.1902 14.05C23.9102 15.67 23.3102 16.9 22.3902 17.74C21.4902 18.58 20.3302 19 18.9102 19H14.4702L15.3402 14.2H17.1102ZM13.5702 18.91L0.850156 17.56H13.8102L13.5702 18.91ZM17.7102 13.12L4.99016 11.77H17.9502L17.7102 13.12ZM18.2202 10.24L5.50016 8.89H18.4602L18.2202 10.24ZM18.7302 7.36L6.01016 6.01H18.9702L18.7302 7.36ZM16.8702 4.48L4.15016 3.13H17.0802L16.8702 4.48ZM14.0802 16L1.36016 14.65H14.3202L14.0802 16ZM17.4102 1.6L4.72016 0.25H17.6502L17.4102 1.6ZM41.9323 19L41.8123 16.57H38.0323L37.1023 19H31.9123L38.5723 3.13H46.0123L47.1823 19H41.9323ZM41.8123 12.28V7.72H41.3923L39.6223 12.28H41.8123ZM30.9523 18.88L18.6523 17.56H31.5223L30.9523 18.88ZM32.1823 15.97L19.8823 14.65H32.7523L32.1823 15.97ZM33.4123 13.09L21.1123 11.77H33.9523L33.4123 13.09ZM34.6123 10.21L22.3423 8.89H35.1823L34.6123 10.21ZM35.8423 7.33L23.5723 6.01H36.3823L35.8423 7.33ZM37.0423 4.42L24.8023 3.13H37.5823L37.0423 4.42ZM66.1367 19H62.1767L61.7267 12.55H61.5767L60.1367 19H55.0067L58.6367 3.13H65.1467L65.5967 10.57H65.7167L68.7467 3.13H75.2567L73.3367 19H68.1767L68.9867 12.55H68.8367L66.1367 19ZM54.0167 18.91L41.2967 17.56H54.3167L54.0167 18.91ZM54.6767 16L41.9867 14.65H55.0067L54.6767 16ZM55.3667 13.12L42.6767 11.77H55.6667L55.3667 13.12ZM55.9667 10.24L43.3667 8.89H56.2967L55.9667 10.24ZM56.6567 7.36L44.0567 6.01H56.9567L56.6567 7.36ZM57.3167 4.48L44.7467 3.13H57.6467L57.3167 4.48Z" fill="#BE03FF"/>
<path d="M100.594 0.25C102.034 0.25 103.074 0.5 103.714 0.999999C104.374 1.5 104.704 2.27 104.704 3.31C104.704 4.83 104.364 6.08 103.684 7.06C103.024 8.04 102.214 8.65 101.254 8.89L101.224 9.07C103.024 9.41 103.924 10.6 103.924 12.64C103.924 14.44 103.434 15.95 102.454 17.17C101.474 18.39 100.094 19 98.3136 19H88.0536L91.3536 0.25H100.594ZM97.2936 11.53H95.0436L94.5036 14.59H96.7236C97.2236 14.59 97.6036 14.39 97.8636 13.99C98.1236 13.59 98.2536 13.08 98.2536 12.46C98.2536 11.84 97.9336 11.53 97.2936 11.53ZM98.1336 4.36H96.3336L95.8236 7.15H97.5936C98.5136 7.15 98.9736 6.5 98.9736 5.2C98.9736 4.64 98.6936 4.36 98.1336 4.36ZM87.1536 18.91L74.4336 17.56H87.3936L87.1536 18.91ZM88.1736 13.12L75.4536 11.77H88.4136L88.1736 13.12ZM88.6836 10.24L75.9636 8.89H88.9236L88.6836 10.24ZM89.1936 7.36L76.4736 6.01H89.4336L89.1936 7.36ZM89.7036 4.48L76.9836 3.13H89.9136L89.7036 4.48ZM87.6636 16L74.9436 14.65H87.9036L87.6636 16ZM90.1836 1.6L77.4936 0.25H90.4236L90.1836 1.6ZM121.036 19H111.286L114.046 3.13H119.326L117.316 14.59H121.816L121.036 19ZM110.296 18.91L97.576 17.56H110.536L110.296 18.91ZM111.316 13.12L98.596 11.77H111.556L111.316 13.12ZM111.826 10.24L99.106 8.89H112.066L111.826 10.24ZM112.336 7.36L99.616 6.01H112.576L112.336 7.36ZM112.846 4.48L100.126 3.13H113.056L112.846 4.48ZM110.806 16L98.086 14.65H111.046L110.806 16ZM137.458 2.83C139.618 2.83 141.158 3.25 142.078 4.09C142.998 4.91 143.458 6.2 143.458 7.96C143.458 8.82 143.348 9.86 143.128 11.08C142.628 13.96 141.748 16.06 140.488 17.38C139.228 18.7 137.248 19.36 134.548 19.36C132.428 19.36 130.918 18.95 130.018 18.13C129.118 17.29 128.668 16 128.668 14.26C128.668 13.36 128.778 12.3 128.998 11.08C129.498 8.2 130.368 6.11 131.608 4.81C132.848 3.49 134.798 2.83 137.458 2.83ZM135.418 14.8C135.998 14.8 136.428 14.73 136.708 14.59C137.008 14.45 137.208 14.14 137.308 13.66L138.448 7.39H136.618C136.058 7.39 135.618 7.46 135.298 7.6C134.998 7.74 134.818 8.04 134.758 8.5L133.648 14.8H135.418ZM127.948 11.77C127.868 12.39 127.818 12.81 127.798 13.03L115.977 11.77H127.948ZM128.518 8.89L128.248 10.15L116.517 8.89H128.518ZM127.768 14.65C127.768 14.97 127.808 15.39 127.888 15.91L116.097 14.65H127.768ZM129.568 6.01C129.328 6.53 129.158 6.93 129.058 7.21L117.717 6.01H129.568ZM128.398 17.56C128.638 18.04 128.898 18.41 129.178 18.67L118.707 17.56H128.398ZM132.178 3.13C131.698 3.41 131.288 3.74 130.948 4.12L121.737 3.13H132.178ZM163.101 18.16C161.061 18.96 158.981 19.36 156.861 19.36C154.741 19.36 153.231 18.95 152.331 18.13C151.431 17.29 150.981 16 150.981 14.26C150.981 13.4 151.121 12.17 151.401 10.57C151.681 8.97 152.111 7.6 152.691 6.46C153.951 4.04 156.501 2.83 160.341 2.83C162.581 2.83 164.141 3.05 165.021 3.49L163.491 7.66C162.231 7.38 161.091 7.24 160.071 7.24C159.071 7.24 158.361 7.31 157.941 7.45C157.521 7.59 157.271 7.86 157.191 8.26L155.931 15.16H157.311C157.811 15.16 158.191 15.11 158.451 15.01C158.731 14.89 158.901 14.64 158.961 14.26L159.171 13.09H157.941L158.541 9.67H164.601L163.101 18.16ZM150.261 11.77C150.181 12.39 150.131 12.81 150.111 13.03L138.291 11.77H150.261ZM150.831 8.89L150.561 10.15L138.831 8.89H150.831ZM150.081 14.65C150.081 14.97 150.121 15.39 150.201 15.91L138.411 14.65H150.081ZM151.881 6.01C151.641 6.53 151.471 6.93 151.371 7.21L140.031 6.01H151.881ZM150.711 17.56C150.951 18.04 151.211 18.41 151.491 18.67L141.021 17.56H150.711ZM154.491 3.13C154.011 3.41 153.601 3.74 153.261 4.12L144.051 3.13H154.491Z" fill="#3941EC"/>
</svg>
